<?xml version="1.0" standalone="no"?>
<!DOCTYPE svg PUBLIC "-//W3C//DTD SVG 20010904//EN"
 "http://www.w3.org/TR/2001/REC-SVG-20010904/DTD/svg10.dtd">
<svg version="1.0" xmlns="http://www.w3.org/2000/svg"
 width="72.000000pt" height="72.000000pt" viewBox="0 0 72.000000 72.000000"
 preserveAspectRatio="xMidYMid meet">
<metadata>
Created by potrace 1.11, written by Peter Selinger 2001-2013
</metadata>
<g transform="translate(0.000000,72.000000) scale(0.100000,-0.100000)"
fill="#000000" stroke="none">
<path d="M325 699 c-59 -9 -89 -24 -128 -62 -119 -115 -80 -312 73 -379 48
-21 143 -18 187 5 46 25 100 84 115 126 57 169 -77 338 -247 310z"/>
<path d="M68 165 c2 -19 5 -35 7 -35 2 0 5 16 7 35 2 21 0 35 -7 35 -7 0 -9
-14 -7 -35z"/>
<path d="M102 165 c0 -22 2 -32 5 -22 5 21 29 23 37 2 3 -9 18 -15 37 -15 37
0 35 9 -3 12 -13 1 -25 7 -25 13 0 7 12 10 26 9 15 -2 18 -1 8 2 -10 3 -16 12
-13 19 3 9 -2 13 -14 12 -10 -1 -18 -6 -17 -11 4 -18 -31 -18 -36 1 -3 10 -5
0 -5 -22z"/>
<path d="M249 178 c-12 -22 -11 -22 8 -5 11 9 23 14 28 10 4 -5 5 -2 1 5 -11
18 -24 15 -37 -10z"/>
<path d="M302 168 c-2 -34 1 -38 21 -37 15 1 17 3 5 6 -10 2 -18 17 -21 36 -4
31 -4 31 -5 -5z"/>
<path d="M350 165 c0 -28 4 -35 20 -35 11 0 20 4 20 10 0 5 -7 7 -15 4 -8 -4
-15 -1 -15 4 0 6 8 13 18 15 16 4 16 5 0 6 -26 2 -22 19 5 24 19 4 18 4 -5 6
-26 1 -28 -2 -28 -34z"/>
<path d="M411 168 c-14 -40 -14 -40 9 -26 11 7 20 16 20 21 0 4 -6 5 -12 1
-10 -6 -10 -4 0 8 8 10 9 19 3 22 -5 3 -14 -8 -20 -26z"/>
<path d="M457 192 c0 -2 -3 -16 -7 -32 -6 -22 -5 -28 5 -24 8 3 11 13 7 22 -4
13 1 11 22 -6 33 -25 74 -29 82 -7 4 8 13 15 21 15 8 0 12 -4 9 -9 -8 -13 45
-24 57 -12 13 13 0 31 -21 30 -15 -1 -15 -2 1 -6 16 -4 25 -23 10 -23 -18 1
-38 20 -38 37 0 11 -7 18 -20 18 -14 0 -21 -8 -23 -27 -2 -16 -10 -28 -17 -28
-21 0 -29 20 -8 21 14 0 14 2 -4 9 -28 12 -30 24 -3 17 11 -3 20 -1 20 4 0 5
-8 9 -17 9 -20 0 -45 -14 -44 -24 2 -17 0 -17 -16 1 -10 10 -17 17 -16 15z
m138 -12 c3 -5 -1 -10 -9 -10 -9 0 -16 5 -16 10 0 6 4 10 9 10 6 0 13 -4 16
-10z"/>
<path d="M620 192 c0 -5 7 -9 15 -9 8 0 15 4 15 9 0 4 -7 8 -15 8 -8 0 -15 -4
-15 -8z"/>
<path d="M259 137 c7 -7 14 -8 21 -1 6 6 2 10 -12 11 -16 2 -18 -1 -9 -10z"/>
<path d="M610 109 c12 -8 10 -9 -9 -7 -13 2 -26 -2 -28 -9 -3 -8 6 -11 24 -10
32 3 47 37 16 37 -15 0 -16 -2 -3 -11z"/>
<path d="M85 80 c3 -5 8 -10 11 -10 2 0 4 5 4 10 0 6 -5 10 -11 10 -5 0 -7 -4
-4 -10z"/>
</g>
</svg>
